<svg width="249" height="53" viewBox="0 0 249 53" fill="none" xmlns="http://www.w3.org/2000/svg">
<path d="M4.50877 11.4855L1 10.0874V33.1554L8.36842 37L20.6491 30.3592V25.1165L15.7368 20.5728L12.5789 22.3204L18.5439 27.5631L8.01754 33.1554L4.50877 31.0583V11.4855Z" fill="#BC9D2E" stroke="#BC9D2E"/>
<path d="M4.50946 9.03883L1.35156 7.64078V3.4466L9.42174 1L21.0007 9.03883V14.9806L8.36911 21.6214V18.4757L17.141 13.932V10.0874L8.71998 4.14563L4.50946 5.54369V9.03883Z" stroke="#BC9D2E"/>
<path d="M45.124 8.61719H48.4053V25.4507C48.4053 27.3192 47.9894 28.8743 47.1577 30.1162C46.326 31.3581 45.2209 32.2923 43.8423 32.9189C42.4751 33.5342 40.9883 33.8418 39.3818 33.8418C37.6956 33.8418 36.1689 33.5342 34.8018 32.9189C33.446 32.2923 32.3693 31.3581 31.5718 30.1162C30.7856 28.8743 30.3926 27.3192 30.3926 25.4507V8.61719H33.6567V25.4507C33.6567 26.7495 33.896 27.8205 34.3745 28.6636C34.853 29.5067 35.5195 30.1333 36.374 30.5435C37.2399 30.9536 38.2425 31.1587 39.3818 31.1587C40.5326 31.1587 41.5352 30.9536 42.3896 30.5435C43.2555 30.1333 43.9277 29.5067 44.4062 28.6636C44.8848 27.8205 45.124 26.7495 45.124 25.4507V8.61719ZM61.6711 8.61719V33.5H58.3728V8.61719H61.6711ZM87.31 30.8169V33.5H74.8686V30.8169H87.31ZM75.518 8.61719V33.5H72.2196V8.61719H75.518ZM102.37 33.5H97.1749L97.2091 30.8169H102.37C104.148 30.8169 105.629 30.4466 106.814 29.7061C107.998 28.9541 108.887 27.9059 109.48 26.5615C110.083 25.2057 110.385 23.6221 110.385 21.8105V20.2896C110.385 18.8654 110.214 17.6007 109.873 16.4956C109.531 15.3791 109.03 14.4391 108.369 13.6758C107.708 12.901 106.899 12.3143 105.942 11.9155C104.996 11.5168 103.908 11.3174 102.678 11.3174H97.0724V8.61719H102.678C104.307 8.61719 105.794 8.89062 107.138 9.4375C108.483 9.97298 109.639 10.7534 110.608 11.7788C111.587 12.7928 112.339 14.0233 112.863 15.4702C113.387 16.9058 113.65 18.5236 113.65 20.3237V21.8105C113.65 23.6107 113.387 25.2342 112.863 26.6812C112.339 28.1167 111.582 29.3415 110.59 30.3555C109.611 31.3695 108.426 32.1499 107.036 32.6968C105.657 33.2323 104.102 33.5 102.37 33.5ZM98.9352 8.61719V33.5H95.6368V8.61719H98.9352ZM142.313 20.2725V21.8447C142.313 23.7132 142.08 25.388 141.613 26.8691C141.145 28.3503 140.473 29.6092 139.596 30.646C138.719 31.6828 137.665 32.4746 136.434 33.0215C135.215 33.5684 133.848 33.8418 132.333 33.8418C130.863 33.8418 129.513 33.5684 128.283 33.0215C127.063 32.4746 126.004 31.6828 125.104 30.646C124.215 29.6092 123.526 28.3503 123.036 26.8691C122.546 25.388 122.301 23.7132 122.301 21.8447V20.2725C122.301 18.404 122.54 16.7349 123.019 15.2651C123.509 13.784 124.198 12.5251 125.087 11.4883C125.975 10.4401 127.029 9.64258 128.248 9.0957C129.479 8.54883 130.829 8.27539 132.299 8.27539C133.814 8.27539 135.181 8.54883 136.4 9.0957C137.631 9.64258 138.685 10.4401 139.562 11.4883C140.45 12.5251 141.128 13.784 141.596 15.2651C142.074 16.7349 142.313 18.404 142.313 20.2725ZM139.049 21.8447V20.2383C139.049 18.7572 138.895 17.4469 138.588 16.3076C138.291 15.1683 137.853 14.2113 137.272 13.4365C136.691 12.6618 135.979 12.075 135.136 11.6763C134.304 11.2775 133.358 11.0781 132.299 11.0781C131.273 11.0781 130.345 11.2775 129.513 11.6763C128.693 12.075 127.986 12.6618 127.394 13.4365C126.813 14.2113 126.363 15.1683 126.044 16.3076C125.725 17.4469 125.565 18.7572 125.565 20.2383V21.8447C125.565 23.3372 125.725 24.6589 126.044 25.8096C126.363 26.9489 126.818 27.9116 127.411 28.6978C128.015 29.4725 128.727 30.0592 129.547 30.458C130.379 30.8568 131.307 31.0562 132.333 31.0562C133.404 31.0562 134.355 30.8568 135.187 30.458C136.019 30.0592 136.719 29.4725 137.289 28.6978C137.87 27.9116 138.309 26.9489 138.605 25.8096C138.901 24.6589 139.049 23.3372 139.049 21.8447ZM168.089 30.8169V33.5H151.238V30.8169H168.089ZM167.542 11.0098L152.024 33.5H149.991V31.0391L165.491 8.61719H167.542V11.0098ZM166.141 8.61719V11.3174H150.213V8.61719H166.141ZM192.737 30.8169V33.5H179.56V30.8169H192.737ZM180.227 8.61719V33.5H176.928V8.61719H180.227ZM190.993 19.3154V21.9985H179.56V19.3154H190.993ZM192.566 8.61719V11.3174H179.56V8.61719H192.566ZM201.371 8.61719H209.608C211.477 8.61719 213.055 8.90202 214.342 9.47168C215.641 10.0413 216.627 10.8844 217.299 12.001C217.982 13.1061 218.324 14.4676 218.324 16.0854C218.324 17.2248 218.091 18.2673 217.623 19.2129C217.168 20.1471 216.507 20.9447 215.641 21.6055C214.787 22.2549 213.761 22.7391 212.565 23.0581L211.642 23.417H203.9L203.866 20.7339H209.711C210.896 20.7339 211.881 20.5288 212.667 20.1187C213.454 19.6971 214.046 19.1331 214.445 18.4268C214.843 17.7204 215.043 16.9399 215.043 16.0854C215.043 15.1284 214.855 14.291 214.479 13.5732C214.103 12.8555 213.51 12.3029 212.702 11.9155C211.904 11.5168 210.873 11.3174 209.608 11.3174H204.669V33.5H201.371V8.61719ZM215.914 33.5L209.865 22.2207L213.3 22.2036L219.435 33.2949V33.5H215.914Z" fill="white"/>
<path d="M31.6816 43.4688L33.6621 47.541L35.6426 43.4688H37.2715L34.4004 48.8594V52H32.918V48.8594L30.0469 43.4688H31.6816ZM38.9662 48.9004V48.7656C38.9662 48.3086 39.0327 47.8848 39.1655 47.4941C39.2983 47.0996 39.4897 46.7578 39.7397 46.4688C39.9936 46.1758 40.3022 45.9492 40.6655 45.7891C41.0327 45.625 41.4467 45.543 41.9077 45.543C42.3725 45.543 42.7866 45.625 43.1498 45.7891C43.517 45.9492 43.8276 46.1758 44.0815 46.4688C44.3354 46.7578 44.5287 47.0996 44.6616 47.4941C44.7944 47.8848 44.8608 48.3086 44.8608 48.7656V48.9004C44.8608 49.3574 44.7944 49.7812 44.6616 50.1719C44.5287 50.5625 44.3354 50.9043 44.0815 51.1973C43.8276 51.4863 43.519 51.7129 43.1557 51.877C42.7924 52.0371 42.3803 52.1172 41.9194 52.1172C41.4545 52.1172 41.0385 52.0371 40.6713 51.877C40.308 51.7129 39.9995 51.4863 39.7455 51.1973C39.4916 50.9043 39.2983 50.5625 39.1655 50.1719C39.0327 49.7812 38.9662 49.3574 38.9662 48.9004ZM40.3784 48.7656V48.9004C40.3784 49.1855 40.4077 49.4551 40.4662 49.709C40.5248 49.9629 40.6166 50.1855 40.7416 50.377C40.8666 50.5684 41.0268 50.7188 41.2221 50.8281C41.4174 50.9375 41.6498 50.9922 41.9194 50.9922C42.1811 50.9922 42.4077 50.9375 42.5991 50.8281C42.7944 50.7188 42.9545 50.5684 43.0795 50.377C43.2045 50.1855 43.2963 49.9629 43.3549 49.709C43.4174 49.4551 43.4487 49.1855 43.4487 48.9004V48.7656C43.4487 48.4844 43.4174 48.2188 43.3549 47.9688C43.2963 47.7148 43.2026 47.4902 43.0737 47.2949C42.9487 47.0996 42.7885 46.9473 42.5932 46.8379C42.4018 46.7246 42.1733 46.668 41.9077 46.668C41.642 46.668 41.4116 46.7246 41.2162 46.8379C41.0248 46.9473 40.8666 47.0996 40.7416 47.2949C40.6166 47.4902 40.5248 47.7148 40.4662 47.9688C40.4077 48.2188 40.3784 48.4844 40.3784 48.7656ZM51.4188 50.5059V45.6602H52.8368V52H51.5009L51.4188 50.5059ZM51.618 49.1875L52.0927 49.1758C52.0927 49.6016 52.0458 49.9941 51.952 50.3535C51.8583 50.709 51.7137 51.0195 51.5184 51.2852C51.3231 51.5469 51.0731 51.752 50.7684 51.9004C50.4637 52.0449 50.0985 52.1172 49.6727 52.1172C49.3641 52.1172 49.0809 52.0723 48.8231 51.9824C48.5653 51.8926 48.3427 51.7539 48.1552 51.5664C47.9716 51.3789 47.829 51.1348 47.7274 50.834C47.6259 50.5332 47.5751 50.1738 47.5751 49.7559V45.6602H48.9872V49.7676C48.9872 49.998 49.0145 50.1914 49.0692 50.3477C49.1239 50.5 49.1981 50.623 49.2919 50.7168C49.3856 50.8105 49.495 50.877 49.62 50.916C49.745 50.9551 49.8778 50.9746 50.0184 50.9746C50.4208 50.9746 50.7372 50.8965 50.9677 50.7402C51.202 50.5801 51.368 50.3652 51.4657 50.0957C51.5673 49.8262 51.618 49.5234 51.618 49.1875ZM57.262 46.8672V52H55.8499V45.6602H57.1976L57.262 46.8672ZM59.2015 45.6191L59.1898 46.9316C59.1038 46.916 59.0101 46.9043 58.9085 46.8965C58.8109 46.8887 58.7132 46.8848 58.6155 46.8848C58.3734 46.8848 58.1605 46.9199 57.9769 46.9902C57.7933 47.0566 57.639 47.1543 57.514 47.2832C57.3929 47.4082 57.2991 47.5605 57.2327 47.7402C57.1663 47.9199 57.1273 48.1211 57.1155 48.3438L56.7933 48.3672C56.7933 47.9688 56.8323 47.5996 56.9105 47.2598C56.9886 46.9199 57.1058 46.6211 57.262 46.3633C57.4222 46.1055 57.6214 45.9043 57.8597 45.7598C58.1019 45.6152 58.3812 45.543 58.6976 45.543C58.7835 45.543 58.8753 45.5508 58.973 45.5664C59.0745 45.582 59.1507 45.5996 59.2015 45.6191ZM67.9055 43.4688V52H66.4348V43.4688H67.9055ZM75.0202 50.6875V43H76.4381V52H75.1549L75.0202 50.6875ZM70.8952 48.9004V48.7773C70.8952 48.2969 70.9518 47.8594 71.0651 47.4648C71.1784 47.0664 71.3424 46.7246 71.5573 46.4395C71.7721 46.1504 72.0338 45.9297 72.3424 45.7773C72.651 45.6211 72.9987 45.543 73.3854 45.543C73.7682 45.543 74.1041 45.6172 74.3932 45.7656C74.6823 45.9141 74.9284 46.127 75.1315 46.4043C75.3346 46.6777 75.4967 47.0059 75.6178 47.3887C75.7389 47.7676 75.8248 48.1895 75.8756 48.6543V49.0469C75.8248 49.5 75.7389 49.9141 75.6178 50.2891C75.4967 50.6641 75.3346 50.9883 75.1315 51.2617C74.9284 51.5352 74.6803 51.7461 74.3873 51.8945C74.0983 52.043 73.7604 52.1172 73.3737 52.1172C72.9909 52.1172 72.6452 52.0371 72.3366 51.877C72.0319 51.7168 71.7721 51.4922 71.5573 51.2031C71.3424 50.9141 71.1784 50.5742 71.0651 50.1836C70.9518 49.7891 70.8952 49.3613 70.8952 48.9004ZM72.3073 48.7773V48.9004C72.3073 49.1895 72.3327 49.459 72.3834 49.709C72.4381 49.959 72.5221 50.1797 72.6354 50.3711C72.7487 50.5586 72.8952 50.707 73.0748 50.8164C73.2584 50.9219 73.4772 50.9746 73.7311 50.9746C74.0514 50.9746 74.3151 50.9043 74.5221 50.7637C74.7291 50.623 74.8913 50.4336 75.0084 50.1953C75.1295 49.9531 75.2116 49.6836 75.2545 49.3867V48.3262C75.2311 48.0957 75.1823 47.8809 75.108 47.6816C75.0377 47.4824 74.942 47.3086 74.8209 47.1602C74.6998 47.0078 74.5495 46.8906 74.3698 46.8086C74.194 46.7227 73.985 46.6797 73.7428 46.6797C73.485 46.6797 73.2663 46.7344 73.0866 46.8438C72.9069 46.9531 72.7584 47.1035 72.6413 47.2949C72.528 47.4863 72.444 47.709 72.3893 47.9629C72.3346 48.2168 72.3073 48.4883 72.3073 48.7773ZM82.2696 52.1172C81.8009 52.1172 81.377 52.041 80.9981 51.8887C80.6231 51.7324 80.3028 51.5156 80.0372 51.2383C79.7755 50.9609 79.5743 50.6348 79.4337 50.2598C79.293 49.8848 79.2227 49.4805 79.2227 49.0469V48.8125C79.2227 48.3164 79.295 47.8672 79.4395 47.4648C79.5841 47.0625 79.7852 46.7188 80.043 46.4336C80.3009 46.1445 80.6055 45.9238 80.9571 45.7715C81.3087 45.6191 81.6895 45.543 82.0997 45.543C82.5528 45.543 82.9493 45.6191 83.2891 45.7715C83.629 45.9238 83.9102 46.1387 84.1329 46.416C84.3595 46.6895 84.5274 47.0156 84.6368 47.3945C84.7501 47.7734 84.8067 48.1914 84.8067 48.6484V49.252H79.9083V48.2383H83.4122V48.127C83.4044 47.873 83.3536 47.6348 83.2598 47.4121C83.17 47.1895 83.0313 47.0098 82.8438 46.873C82.6563 46.7363 82.4063 46.668 82.0938 46.668C81.8595 46.668 81.6505 46.7188 81.4669 46.8203C81.2872 46.918 81.1368 47.0605 81.0157 47.248C80.8946 47.4355 80.8009 47.6621 80.7345 47.9277C80.672 48.1895 80.6407 48.4844 80.6407 48.8125V49.0469C80.6407 49.3242 80.6778 49.582 80.752 49.8203C80.8302 50.0547 80.9434 50.2598 81.0919 50.4355C81.2403 50.6113 81.42 50.75 81.6309 50.8516C81.8419 50.9492 82.0821 50.998 82.3516 50.998C82.6915 50.998 82.9942 50.9297 83.2598 50.793C83.5255 50.6562 83.7559 50.4629 83.9512 50.2129L84.6954 50.9336C84.5587 51.1328 84.3809 51.3242 84.1622 51.5078C83.9434 51.6875 83.6759 51.834 83.3595 51.9473C83.047 52.0605 82.6837 52.1172 82.2696 52.1172ZM91.0425 50.7285V47.7051C91.0425 47.4785 91.0015 47.2832 90.9195 47.1191C90.8374 46.9551 90.7124 46.8281 90.5445 46.7383C90.3804 46.6484 90.1734 46.6035 89.9234 46.6035C89.6929 46.6035 89.4937 46.6426 89.3257 46.7207C89.1577 46.7988 89.0269 46.9043 88.9331 47.0371C88.8394 47.1699 88.7925 47.3203 88.7925 47.4883H87.3862C87.3862 47.2383 87.4468 46.9961 87.5679 46.7617C87.689 46.5273 87.8648 46.3184 88.0952 46.1348C88.3257 45.9512 88.6011 45.8066 88.9214 45.7012C89.2417 45.5957 89.6011 45.543 89.9995 45.543C90.4761 45.543 90.898 45.623 91.2652 45.7832C91.6362 45.9434 91.9273 46.1855 92.1382 46.5098C92.353 46.8301 92.4605 47.2324 92.4605 47.7168V50.5352C92.4605 50.8242 92.48 51.084 92.5191 51.3145C92.562 51.541 92.6226 51.7383 92.7007 51.9062V52H91.2534C91.187 51.8477 91.1343 51.6543 91.0952 51.4199C91.0601 51.1816 91.0425 50.9512 91.0425 50.7285ZM91.2476 48.1445L91.2593 49.0176H90.2456C89.9839 49.0176 89.7534 49.043 89.5542 49.0938C89.355 49.1406 89.189 49.2109 89.0562 49.3047C88.9234 49.3984 88.8237 49.5117 88.7573 49.6445C88.6909 49.7773 88.6577 49.9277 88.6577 50.0957C88.6577 50.2637 88.6968 50.418 88.7749 50.5586C88.853 50.6953 88.9663 50.8027 89.1148 50.8809C89.2671 50.959 89.4507 50.998 89.6655 50.998C89.9546 50.998 90.2066 50.9395 90.4214 50.8223C90.6402 50.7012 90.812 50.5547 90.937 50.3828C91.062 50.207 91.1284 50.041 91.1362 49.8848L91.5933 50.5117C91.5464 50.6719 91.4663 50.8438 91.353 51.0273C91.2398 51.2109 91.0913 51.3867 90.9077 51.5547C90.728 51.7188 90.5112 51.8535 90.2573 51.959C90.0073 52.0645 89.7183 52.1172 89.3902 52.1172C88.9761 52.1172 88.607 52.0352 88.2827 51.8711C87.9585 51.7031 87.7046 51.4785 87.521 51.1973C87.3374 50.9121 87.2456 50.5898 87.2456 50.2305C87.2456 49.8945 87.3081 49.5977 87.4331 49.3398C87.562 49.0781 87.7495 48.8594 87.9956 48.6836C88.2456 48.5078 88.5503 48.375 88.9097 48.2852C89.2691 48.1914 89.6792 48.1445 90.1402 48.1445H91.2476ZM102.325 50.084L104.024 43.4688H104.914L104.815 45.1738L102.998 52H102.073L102.325 50.084ZM101.053 43.4688L102.43 50.0312L102.553 52H101.569L99.5941 43.4688H101.053ZM106.842 50.0137L108.202 43.4688H109.666L107.692 52H106.707L106.842 50.0137ZM105.26 43.4688L106.942 50.1016L107.188 52H106.262L104.475 45.1738L104.381 43.4688H105.26ZM114.783 52.1172C114.314 52.1172 113.89 52.041 113.512 51.8887C113.137 51.7324 112.816 51.5156 112.551 51.2383C112.289 50.9609 112.088 50.6348 111.947 50.2598C111.806 49.8848 111.736 49.4805 111.736 49.0469V48.8125C111.736 48.3164 111.808 47.8672 111.953 47.4648C112.097 47.0625 112.299 46.7188 112.556 46.4336C112.814 46.1445 113.119 45.9238 113.471 45.7715C113.822 45.6191 114.203 45.543 114.613 45.543C115.066 45.543 115.463 45.6191 115.803 45.7715C116.142 45.9238 116.424 46.1387 116.646 46.416C116.873 46.6895 117.041 47.0156 117.15 47.3945C117.264 47.7734 117.32 48.1914 117.32 48.6484V49.252H112.422V48.2383H115.926V48.127C115.918 47.873 115.867 47.6348 115.773 47.4121C115.683 47.1895 115.545 47.0098 115.357 46.873C115.17 46.7363 114.92 46.668 114.607 46.668C114.373 46.668 114.164 46.7188 113.98 46.8203C113.801 46.918 113.65 47.0605 113.529 47.248C113.408 47.4355 113.314 47.6621 113.248 47.9277C113.185 48.1895 113.154 48.4844 113.154 48.8125V49.0469C113.154 49.3242 113.191 49.582 113.265 49.8203C113.344 50.0547 113.457 50.2598 113.605 50.4355C113.754 50.6113 113.933 50.75 114.144 50.8516C114.355 50.9492 114.596 50.998 114.865 50.998C115.205 50.998 115.508 50.9297 115.773 50.793C116.039 50.6562 116.269 50.4629 116.465 50.2129L117.209 50.9336C117.072 51.1328 116.894 51.3242 116.676 51.5078C116.457 51.6875 116.189 51.834 115.873 51.9473C115.56 52.0605 115.197 52.1172 114.783 52.1172ZM127.87 48.1445H125.696L125.684 47.0723H127.583C127.903 47.0723 128.175 47.0254 128.397 46.9316C128.624 46.834 128.796 46.6953 128.913 46.5156C129.03 46.332 129.089 46.1113 129.089 45.8535C129.089 45.5684 129.034 45.3359 128.925 45.1562C128.815 44.9766 128.647 44.8457 128.421 44.7637C128.198 44.6816 127.913 44.6406 127.565 44.6406H126.141V52H124.671V43.4688H127.565C128.034 43.4688 128.452 43.5137 128.819 43.6035C129.19 43.6934 129.505 43.834 129.762 44.0254C130.024 44.2129 130.221 44.4512 130.354 44.7402C130.491 45.0293 130.559 45.373 130.559 45.7715C130.559 46.123 130.475 46.4453 130.307 46.7383C130.139 47.0273 129.891 47.2637 129.563 47.4473C129.235 47.6309 128.827 47.7402 128.339 47.7754L127.87 48.1445ZM127.805 52H125.233L125.895 50.834H127.805C128.137 50.834 128.415 50.7793 128.637 50.6699C128.86 50.5566 129.026 50.4023 129.135 50.207C129.249 50.0078 129.305 49.7754 129.305 49.5098C129.305 49.2324 129.257 48.9922 129.159 48.7891C129.061 48.582 128.907 48.4238 128.696 48.3145C128.485 48.2012 128.21 48.1445 127.87 48.1445H126.217L126.229 47.0723H128.38L128.714 47.4766C129.182 47.4922 129.567 47.5957 129.868 47.7871C130.173 47.9785 130.399 48.2266 130.548 48.5312C130.696 48.8359 130.77 49.1641 130.77 49.5156C130.77 50.0586 130.651 50.5137 130.413 50.8809C130.178 51.248 129.841 51.5273 129.399 51.7188C128.958 51.9062 128.426 52 127.805 52ZM137.486 50.5059V45.6602H138.904V52H137.569L137.486 50.5059ZM137.686 49.1875L138.16 49.1758C138.16 49.6016 138.113 49.9941 138.02 50.3535C137.926 50.709 137.781 51.0195 137.586 51.2852C137.391 51.5469 137.141 51.752 136.836 51.9004C136.531 52.0449 136.166 52.1172 135.74 52.1172C135.432 52.1172 135.149 52.0723 134.891 51.9824C134.633 51.8926 134.41 51.7539 134.223 51.5664C134.039 51.3789 133.897 51.1348 133.795 50.834C133.694 50.5332 133.643 50.1738 133.643 49.7559V45.6602H135.055V49.7676C135.055 49.998 135.082 50.1914 135.137 50.3477C135.192 50.5 135.266 50.623 135.36 50.7168C135.453 50.8105 135.563 50.877 135.688 50.916C135.813 50.9551 135.945 50.9746 136.086 50.9746C136.488 50.9746 136.805 50.8965 137.035 50.7402C137.27 50.5801 137.436 50.3652 137.533 50.0957C137.635 49.8262 137.686 49.5234 137.686 49.1875ZM143.423 45.6602V52H142.005V45.6602H143.423ZM141.912 43.9961C141.912 43.7812 141.982 43.6035 142.123 43.4629C142.267 43.3184 142.466 43.2461 142.72 43.2461C142.97 43.2461 143.168 43.3184 143.312 43.4629C143.457 43.6035 143.529 43.7812 143.529 43.9961C143.529 44.207 143.457 44.3828 143.312 44.5234C143.168 44.6641 142.97 44.7344 142.72 44.7344C142.466 44.7344 142.267 44.6641 142.123 44.5234C141.982 44.3828 141.912 44.207 141.912 43.9961ZM148.042 43V52H146.624V43H148.042ZM155.016 50.6875V43H156.434V52H155.151L155.016 50.6875ZM150.891 48.9004V48.7773C150.891 48.2969 150.948 47.8594 151.061 47.4648C151.174 47.0664 151.338 46.7246 151.553 46.4395C151.768 46.1504 152.03 45.9297 152.338 45.7773C152.647 45.6211 152.995 45.543 153.381 45.543C153.764 45.543 154.1 45.6172 154.389 45.7656C154.678 45.9141 154.924 46.127 155.127 46.4043C155.331 46.6777 155.493 47.0059 155.614 47.3887C155.735 47.7676 155.821 48.1895 155.872 48.6543V49.0469C155.821 49.5 155.735 49.9141 155.614 50.2891C155.493 50.6641 155.331 50.9883 155.127 51.2617C154.924 51.5352 154.676 51.7461 154.383 51.8945C154.094 52.043 153.756 52.1172 153.37 52.1172C152.987 52.1172 152.641 52.0371 152.332 51.877C152.028 51.7168 151.768 51.4922 151.553 51.2031C151.338 50.9141 151.174 50.5742 151.061 50.1836C150.948 49.7891 150.891 49.3613 150.891 48.9004ZM152.303 48.7773V48.9004C152.303 49.1895 152.329 49.459 152.379 49.709C152.434 49.959 152.518 50.1797 152.631 50.3711C152.745 50.5586 152.891 50.707 153.071 50.8164C153.254 50.9219 153.473 50.9746 153.727 50.9746C154.047 50.9746 154.311 50.9043 154.518 50.7637C154.725 50.623 154.887 50.4336 155.004 50.1953C155.125 49.9531 155.207 49.6836 155.25 49.3867V48.3262C155.227 48.0957 155.178 47.8809 155.104 47.6816C155.034 47.4824 154.938 47.3086 154.817 47.1602C154.696 47.0078 154.545 46.8906 154.366 46.8086C154.19 46.7227 153.981 46.6797 153.739 46.6797C153.481 46.6797 153.262 46.7344 153.082 46.8438C152.903 46.9531 152.754 47.1035 152.637 47.2949C152.524 47.4863 152.44 47.709 152.385 47.9629C152.331 48.2168 152.303 48.4883 152.303 48.7773ZM159.529 51.2969C159.529 51.0781 159.603 50.8945 159.752 50.7461C159.9 50.5938 160.101 50.5176 160.355 50.5176C160.613 50.5176 160.814 50.5938 160.959 50.7461C161.107 50.8945 161.182 51.0781 161.182 51.2969C161.182 51.5156 161.107 51.6992 160.959 51.8477C160.814 51.9961 160.613 52.0703 160.355 52.0703C160.101 52.0703 159.9 51.9961 159.752 51.8477C159.603 51.6992 159.529 51.5156 159.529 51.2969Z" fill="#A2A2A2"/>
</svg>
